<svg width="119" height="120" viewBox="0 0 119 120" fill="none" xmlns="http://www.w3.org/2000/svg">
<rect x="3.65112" y="63.2945" width="5.17" height="79.7005" transform="rotate(-135 3.65112 63.2945)" fill="#E2DCDC"/>
<rect x="3" y="62.6557" width="5.17" height="79.7005" transform="rotate(-45 3 62.6557)" fill="#E2DCDC"/>
<rect x="114.44" y="56.4632" width="5.17" height="79.7005" transform="rotate(45 114.44 56.4632)" fill="#E2DCDC"/>
<rect x="115.091" y="57.102" width="5.17" height="79.7005" transform="rotate(135 115.091 57.102)" fill="#E2DCDC"/>
<path d="M59.0607 29.9393C58.4749 29.3536 57.5251 29.3536 56.9393 29.9393L47.3934 39.4853C46.8076 40.0711 46.8076 41.0208 47.3934 41.6066C47.9792 42.1924 48.9289 42.1924 49.5147 41.6066L58 33.1213L66.4853 41.6066C67.0711 42.1924 68.0208 42.1924 68.6066 41.6066C69.1924 41.0208 69.1924 40.0711 68.6066 39.4853L59.0607 29.9393ZM59.5 33L59.5 31L56.5 31L56.5 33L59.5 33Z" fill="#A8A8A8"/>
<path d="M28.9393 58.9393C28.3536 59.5251 28.3536 60.4749 28.9393 61.0607L38.4853 70.6066C39.0711 71.1924 40.0208 71.1924 40.6066 70.6066C41.1924 70.0208 41.1924 69.0711 40.6066 68.4853L32.1213 60L40.6066 51.5147C41.1924 50.9289 41.1924 49.9792 40.6066 49.3934C40.0208 48.8076 39.0711 48.8076 38.4853 49.3934L28.9393 58.9393ZM32 58.5L30 58.5L30 61.5L32 61.5L32 58.5Z" fill="#A8A8A8"/>
<path d="M87.0607 60.0607C87.6464 59.4749 87.6464 58.5251 87.0607 57.9393L77.5147 48.3934C76.9289 47.8076 75.9792 47.8076 75.3934 48.3934C74.8076 48.9792 74.8076 49.9289 75.3934 50.5147L83.8787 59L75.3934 67.4853C74.8076 68.0711 74.8076 69.0208 75.3934 69.6066C75.9792 70.1924 76.9289 70.1924 77.5147 69.6066L87.0607 60.0607ZM84 60.5H86V57.5H84V60.5Z" fill="#A8A8A8"/>
<path d="M56.9393 88.0607C57.5251 88.6464 58.4749 88.6464 59.0607 88.0607L68.6066 78.5147C69.1924 77.9289 69.1924 76.9792 68.6066 76.3934C68.0208 75.8076 67.0711 75.8076 66.4853 76.3934L58 84.8787L49.5147 76.3934C48.9289 75.8076 47.9792 75.8076 47.3934 76.3934C46.8076 76.9792 46.8076 77.9289 47.3934 78.5147L56.9393 88.0607ZM56.5 85L56.5 87L59.5 87L59.5 85L56.5 85Z" fill="#A8A8A8"/>
</svg>
